<?xml version="1.0" standalone="no"?><!DOCTYPE svg PUBLIC "-//W3C//DTD SVG 1.1//EN" "http://www.w3.org/Graphics/SVG/1.1/DTD/svg11.dtd"><svg t="1724385701467" class="icon" viewBox="0 0 1024 1024" version="1.1" xmlns="http://www.w3.org/2000/svg" p-id="15264" data-spm-anchor-id="a313x.search_index.0.i6.4fd03a81CTFD9L" xmlns:xlink="http://www.w3.org/1999/xlink" width="200" height="200"><path d="M208 464v224h64V464h-64z m0-64h64c35.3 0 64 28.7 64 64v224c0 35.3-28.7 64-64 64h-64c-35.3 0-64-28.7-64-64V464c0-35.3 28.7-64 64-64z m528-208h64c35.3 0 64 28.7 64 64v432c0 35.3-28.7 64-64 64h-64c-35.3 0-64-28.7-64-64V256c0-35.3 28.7-64 64-64z m0 64v432h64V256h-64zM128 816h768c8.8 0 16 7.2 16 16s-7.2 16-16 16H128c-8.8 0-16-7.2-16-16s7.2-16 16-16z" fill="#d81e06" p-id="15265" data-spm-anchor-id="a313x.search_index.0.i7.4fd03a81CTFD9L" class=""></path><path d="M480 352v336h64V352h-64z m0-64h64c35.3 0 64 28.7 64 64v336c0 35.3-28.7 64-64 64h-64c-35.3 0-64-28.7-64-64V352c0-35.3 28.7-64 64-64z" fill="#bfbfbf" p-id="15266" data-spm-anchor-id="a313x.search_index.0.i4.4fd03a81CTFD9L" class="selected"></path></svg>