<?xml version="1.0" standalone="no"?><!DOCTYPE svg PUBLIC "-//W3C//DTD SVG 1.1//EN" "http://www.w3.org/Graphics/SVG/1.1/DTD/svg11.dtd"><svg t="1724385607872" class="icon" viewBox="0 0 1024 1024" version="1.1" xmlns="http://www.w3.org/2000/svg" p-id="8369" xmlns:xlink="http://www.w3.org/1999/xlink" width="200" height="200"><path d="M1013.104486 907.3152L827.760486 721.92A407.9104 407.9104 0 0 0 921.917286 451.072C916.797286 229.12 732.477286 50.0736 510.218086 51.2a408.9344 408.9344 0 0 0-329.472 168.96 38.4 38.4 0 1 0 62.0544 45.2608A332.8 332.8 0 1 1 302.397286 719.0016a38.4 38.4 0 0 0-48.4352 59.648 409.6 409.6 0 0 0 519.4752-2.4064l185.344 185.344a38.4 38.4 0 0 0 54.272-54.272z" fill="#d4237a" p-id="8370"></path><path d="M755.517286 344.6272A63.8976 63.8976 0 0 0 703.242086 445.44l-54.3232 94.0544c-1.8944 0-3.7888-0.256-5.7344-0.256a63.8464 63.8464 0 0 0-22.016 3.9424L471.357286 393.216a62.8736 62.8736 0 0 0 3.9936-22.016A64 64 0 1 0 358.717286 408.0128l-61.44 105.984c-1.8944 0-3.7888-0.3072-5.7344-0.3072a64.3072 64.3072 0 0 0-22.016 3.9936l-34.7648-34.7648a62.8736 62.8736 0 0 0 3.9936-22.016 64 64 0 1 0-116.2752 36.8128l-52.4288 91.392a53.0944 53.0944 0 0 0-5.7344-0.3072 64.1536 64.1536 0 1 0 52.2752 27.1872L169.277286 524.5952a53.0944 53.0944 0 0 0 5.7344 0.3072 62.8736 62.8736 0 0 0 22.016-3.9936l34.7648 34.7648a63.9488 63.9488 0 1 0 112.3328-14.7968l61.44-105.984a53.0944 53.0944 0 0 0 5.7344 0.3072 62.8736 62.8736 0 0 0 22.016-3.9936l149.9648 150.016a64 64 0 1 0 112.3328-14.7968l54.3232-94.0544h5.7344a64 64 0 0 0 0-128z" fill="#d4237a" p-id="8371"></path></svg>