<?xml version="1.0" encoding="utf-8"?>
<!-- Generator: Adobe Illustrator 26.0.0, SVG Export Plug-In . SVG Version: 6.00 Build 0)  -->
<svg version="1.1" id="图层_1" xmlns="http://www.w3.org/2000/svg" xmlns:xlink="http://www.w3.org/1999/xlink" x="0px" y="0px"
	 viewBox="0 0 500 500" style="enable-background:new 0 0 500 500;" xml:space="preserve">
<style type="text/css">
	.st0{fill:#189343;stroke:#138B3B;stroke-width:10.6667;stroke-linecap:round;stroke-linejoin:round;stroke-miterlimit:10.6667;}
	.st1{fill:#2CA339;stroke:#2CA339;stroke-width:10.6667;stroke-linecap:round;stroke-linejoin:round;stroke-miterlimit:10.6667;}
	.st2{fill:#F5E929;stroke:#F5E929;stroke-width:10.6667;stroke-linecap:round;stroke-linejoin:round;stroke-miterlimit:21.3333;}
	.st3{fill:#FFFFFF;stroke:#F5E929;stroke-width:10.6667;stroke-linecap:round;stroke-linejoin:round;stroke-miterlimit:21.3333;}
</style>
<circle class="st0" cx="250" cy="250" r="210.9"/>
<g>
	<path class="st1" d="M444.2,53.9c0,0-101.8-17.4-136.9,38.8c-26.1,42,9.8,87.4,9.8,87.4 M444.2,53.9L317,180.2 M444.2,53.9
		c0,0,17.5,101.1-39.1,136c-42.2,26-88-9.7-88-9.7 M317,180.2l-29.4,29.1"/>
	<path class="st1" d="M317,316.3l-29.4-29.1 M444.2,442.5c0,0-101.8,17.4-136.9-38.8c-26.1-42,9.8-87.4,9.8-87.4L444.2,442.5z
		 M444.2,442.5c0,0,17.5-101.1-39.1-136c-42.2-26-88,9.7-88,9.7L444.2,442.5z M444.2,442.5L317,316.1L444.2,442.5z"/>
	<path class="st1" d="M182.7,180.2l29.4,29.1 M55.6,53.9c0,0,101.8-17.4,136.9,38.8c26.1,42-9.8,87.4-9.8,87.4L55.6,53.9z
		 M55.6,53.9c0,0-17.5,101.1,39.1,136c42.2,26,88-9.7,88-9.7L55.6,53.9z M55.6,53.9l127.1,126.3L55.6,53.9z"/>
	<path class="st1" d="M182.7,316.3l29.4-29.1 M55.6,442.5c0,0,101.8,17.4,136.9-38.8c26.1-42-9.8-87.4-9.8-87.4L55.6,442.5z
		 M55.6,442.5c0,0-17.5-101.1,39.1-136c42.2-26,88,9.7,88,9.7L55.6,442.5z M55.6,442.5l127.1-126.3L55.6,442.5z"/>
</g>
<path class="st2" d="M391.6,333.4H108.4C62.5,333.4,25,295.9,25,250l0,0c0-45.9,37.5-83.4,83.4-83.4h283.3
	c45.9,0,83.4,37.5,83.4,83.4l0,0C475,295.9,437.4,333.4,391.6,333.4z"/>
<path class="st2" d="M166.6,391.6V108.4c0-45.9,37.5-83.4,83.4-83.4l0,0c45.9,0,83.4,37.5,83.4,83.4v283.3
	c0,45.9-37.5,83.4-83.4,83.4l0,0C204.1,475,166.6,437.5,166.6,391.6z"/>
<circle class="st3" cx="250" cy="250" r="70.3"/>
</svg>
