<?xml version="1.0" encoding="utf-8" standalone="no"?>
<!DOCTYPE svg PUBLIC "-//W3C//DTD SVG 1.1//EN"
  "http://www.w3.org/Graphics/SVG/1.1/DTD/svg11.dtd">
<svg xmlns:xlink="http://www.w3.org/1999/xlink" width="1130.4pt" height="236.16pt" viewBox="0 0 1130.4 236.16" xmlns="http://www.w3.org/2000/svg" version="1.1">
 <metadata>
  <rdf:RDF xmlns:dc="http://purl.org/dc/elements/1.1/" xmlns:cc="http://creativecommons.org/ns#" xmlns:rdf="http://www.w3.org/1999/02/22-rdf-syntax-ns#">
   <cc:Work>
    <dc:type rdf:resource="http://purl.org/dc/dcmitype/StillImage"/>
    <dc:date>2025-01-10T15:57:27.040224</dc:date>
    <dc:format>image/svg+xml</dc:format>
    <dc:creator>
     <cc:Agent>
      <dc:title>Matplotlib v3.9.2, https://matplotlib.org/</dc:title>
     </cc:Agent>
    </dc:creator>
   </cc:Work>
  </rdf:RDF>
 </metadata>
 <defs>
  <style type="text/css">*{stroke-linejoin: round; stroke-linecap: butt}</style>
 </defs>
 <g id="figure_1">
  <g id="patch_1">
   <path d="M 0 236.16 
L 1130.4 236.16 
L 1130.4 0 
L 0 0 
z
" style="fill: #ffffff"/>
  </g>
  <g id="axes_1">
   <g id="line2d_1">
    <path d="M 26.083249 118.08 
L 1104.316751 118.08 
" clip-path="url(#p8a22460b1d)" style="fill: none; stroke: #989898; stroke-width: 3; stroke-linecap: square"/>
   </g>
   <g id="cds_1">
    <path name="cds_1" d="M 46.099492 129.168 
L 78.201015 129.168 
L 78.201015 106.992 
L 46.099492 106.992 
z
" clip-path="url(#p8a22460b1d)" style="fill: #b8ddb1"/>
   </g>
   <g id="cds_2">
    <path name="cds_2" d="M 95.951269 129.168 
L 107.847716 129.168 
L 107.847716 106.992 
L 95.951269 106.992 
z
" clip-path="url(#p8a22460b1d)" style="fill: #b8ddb1"/>
   </g>
   <g id="cds_3">
    <path name="cds_3" d="M 128.619289 129.168 
L 184.324873 129.168 
L 184.324873 106.992 
L 128.619289 106.992 
z
" clip-path="url(#p8a22460b1d)" style="fill: #b8ddb1"/>
   </g>
   <g id="cds_4">
    <path name="cds_4" d="M 199.99797 129.168 
L 241.163452 129.168 
L 241.163452 106.992 
L 199.99797 106.992 
z
" clip-path="url(#p8a22460b1d)" style="fill: #b8ddb1"/>
   </g>
   <g id="cds_5">
    <path name="cds_5" d="M 256.270051 129.168 
L 295.736041 129.168 
L 295.736041 106.992 
L 256.270051 106.992 
z
" clip-path="url(#p8a22460b1d)" style="fill: #b8ddb1"/>
   </g>
   <g id="cds_6">
    <path name="cds_6" d="M 314.996954 129.168 
L 332.936041 129.168 
L 332.936041 106.992 
L 314.996954 106.992 
z
" clip-path="url(#p8a22460b1d)" style="fill: #b8ddb1"/>
   </g>
   <g id="cds_7">
    <path name="cds_7" d="M 365.037563 129.168 
L 383.543147 129.168 
L 383.543147 106.992 
L 365.037563 106.992 
z
" clip-path="url(#p8a22460b1d)" style="fill: #b8ddb1"/>
   </g>
   <g id="cds_8">
    <path name="cds_8" d="M 399.782741 129.168 
L 405.258883 129.168 
L 405.258883 106.992 
L 399.782741 106.992 
z
" clip-path="url(#p8a22460b1d)" style="fill: #b8ddb1"/>
   </g>
   <g id="cds_9">
    <path name="cds_9" d="M 421.876142 129.168 
L 431.884264 129.168 
L 431.884264 106.992 
L 421.876142 106.992 
z
" clip-path="url(#p8a22460b1d)" style="fill: #b8ddb1"/>
   </g>
   <g id="cds_10">
    <path name="cds_10" d="M 469.273096 129.168 
L 479.281218 129.168 
L 479.281218 106.992 
L 469.273096 106.992 
z
" clip-path="url(#p8a22460b1d)" style="fill: #b8ddb1"/>
   </g>
   <g id="cds_11">
    <path name="cds_11" d="M 493.06599 129.168 
L 507.606091 129.168 
L 507.606091 106.992 
L 493.06599 106.992 
z
" clip-path="url(#p8a22460b1d)" style="fill: #b8ddb1"/>
   </g>
   <g id="cds_12">
    <path name="cds_12" d="M 539.518782 129.168 
L 556.702538 129.168 
L 556.702538 106.992 
L 539.518782 106.992 
z
" clip-path="url(#p8a22460b1d)" style="fill: #b8ddb1"/>
   </g>
   <g id="cds_13">
    <path name="cds_13" d="M 572.375635 129.168 
L 583.139086 129.168 
L 583.139086 106.992 
L 572.375635 106.992 
z
" clip-path="url(#p8a22460b1d)" style="fill: #b8ddb1"/>
   </g>
   <g id="cds_14">
    <path name="cds_14" d="M 606.743147 129.168 
L 620.716751 129.168 
L 620.716751 106.992 
L 606.743147 106.992 
z
" clip-path="url(#p8a22460b1d)" style="fill: #b8ddb1"/>
   </g>
   <g id="cds_15">
    <path name="cds_15" d="M 643.37665 129.168 
L 652.251777 129.168 
L 652.251777 106.992 
L 643.37665 106.992 
z
" clip-path="url(#p8a22460b1d)" style="fill: #b8ddb1"/>
   </g>
   <g id="cds_16">
    <path name="cds_16" d="M 693.039594 129.168 
L 711.356345 129.168 
L 711.356345 106.992 
L 693.039594 106.992 
z
" clip-path="url(#p8a22460b1d)" style="fill: #b8ddb1"/>
   </g>
   <g id="cds_17">
    <path name="cds_17" d="M 763.662944 129.168 
L 777.825381 129.168 
L 777.825381 106.992 
L 763.662944 106.992 
z
" clip-path="url(#p8a22460b1d)" style="fill: #b8ddb1"/>
   </g>
   <g id="cds_18">
    <path name="cds_18" d="M 839.384772 129.168 
L 851.092386 129.168 
L 851.092386 106.992 
L 839.384772 106.992 
z
" clip-path="url(#p8a22460b1d)" style="fill: #b8ddb1"/>
   </g>
   <g id="cds_19">
    <path name="cds_19" d="M 870.542132 129.168 
L 887.725888 129.168 
L 887.725888 106.992 
L 870.542132 106.992 
z
" clip-path="url(#p8a22460b1d)" style="fill: #b8ddb1"/>
   </g>
   <g id="cds_20">
    <path name="cds_20" d="M 944.564467 129.168 
L 957.405076 129.168 
L 957.405076 106.992 
L 944.564467 106.992 
z
" clip-path="url(#p8a22460b1d)" style="fill: #b8ddb1"/>
   </g>
   <g id="cds_21">
    <path name="cds_21" d="M 971.567513 129.168 
L 983.463959 129.168 
L 983.463959 106.992 
L 971.567513 106.992 
z
" clip-path="url(#p8a22460b1d)" style="fill: #b8ddb1"/>
   </g>
   <g id="cds_22">
    <path name="cds_22" d="M 1001.403046 129.168 
L 1013.677157 129.168 
L 1013.677157 106.992 
L 1001.403046 106.992 
z
" clip-path="url(#p8a22460b1d)" style="fill: #b8ddb1"/>
   </g>
   <g id="cds_23">
    <path name="cds_23" d="M 1031.238579 129.168 
L 1045.77868 129.168 
L 1045.77868 106.992 
L 1031.238579 106.992 
z
" clip-path="url(#p8a22460b1d)" style="fill: #b8ddb1"/>
   </g>
   <g id="utr_1">
    <path name="utr_1" d="M 26.083249 129.168 
L 45.91066 129.168 
L 45.91066 106.992 
L 26.083249 106.992 
z
" clip-path="url(#p8a22460b1d)" style="fill: #fee59e"/>
   </g>
   <g id="utr_2">
    <path name="utr_2" d="M 1045.967513 129.168 
L 1104.316751 129.168 
L 1104.316751 106.992 
L 1045.967513 106.992 
z
" clip-path="url(#p8a22460b1d)" style="fill: #fee59e"/>
   </g>
   <g id="line2d_2">
    <path d="M 26.083249 145.8 
L 1104.316751 145.8 
" clip-path="url(#p8a22460b1d)" style="fill: none; stroke: #000000; stroke-linecap: square"/>
   </g>
   <g id="line2d_3">
    <path d="M 26.083249 148.0176 
L 26.083249 145.8 
" clip-path="url(#p8a22460b1d)" style="fill: none; stroke: #000000; stroke-linecap: square"/>
   </g>
   <g id="line2d_4">
    <path d="M 120.499492 148.0176 
L 120.499492 145.8 
" clip-path="url(#p8a22460b1d)" style="fill: none; stroke: #000000; stroke-linecap: square"/>
   </g>
   <g id="line2d_5">
    <path d="M 214.915736 148.0176 
L 214.915736 145.8 
" clip-path="url(#p8a22460b1d)" style="fill: none; stroke: #000000; stroke-linecap: square"/>
   </g>
   <g id="line2d_6">
    <path d="M 309.33198 148.0176 
L 309.33198 145.8 
" clip-path="url(#p8a22460b1d)" style="fill: none; stroke: #000000; stroke-linecap: square"/>
   </g>
   <g id="line2d_7">
    <path d="M 403.748223 148.0176 
L 403.748223 145.8 
" clip-path="url(#p8a22460b1d)" style="fill: none; stroke: #000000; stroke-linecap: square"/>
   </g>
   <g id="line2d_8">
    <path d="M 498.164467 148.0176 
L 498.164467 145.8 
" clip-path="url(#p8a22460b1d)" style="fill: none; stroke: #000000; stroke-linecap: square"/>
   </g>
   <g id="line2d_9">
    <path d="M 592.580711 148.0176 
L 592.580711 145.8 
" clip-path="url(#p8a22460b1d)" style="fill: none; stroke: #000000; stroke-linecap: square"/>
   </g>
   <g id="line2d_10">
    <path d="M 686.996954 148.0176 
L 686.996954 145.8 
" clip-path="url(#p8a22460b1d)" style="fill: none; stroke: #000000; stroke-linecap: square"/>
   </g>
   <g id="line2d_11">
    <path d="M 781.413198 148.0176 
L 781.413198 145.8 
" clip-path="url(#p8a22460b1d)" style="fill: none; stroke: #000000; stroke-linecap: square"/>
   </g>
   <g id="line2d_12">
    <path d="M 875.829442 148.0176 
L 875.829442 145.8 
" clip-path="url(#p8a22460b1d)" style="fill: none; stroke: #000000; stroke-linecap: square"/>
   </g>
   <g id="line2d_13">
    <path d="M 970.245685 148.0176 
L 970.245685 145.8 
" clip-path="url(#p8a22460b1d)" style="fill: none; stroke: #000000; stroke-linecap: square"/>
   </g>
   <g id="line2d_14">
    <path d="M 1064.661929 148.0176 
L 1064.661929 145.8 
" clip-path="url(#p8a22460b1d)" style="fill: none; stroke: #000000; stroke-linecap: square"/>
   </g>
   <g id="text_1">
    <!-- BnaA08G0305300ZS -->
    <g transform="translate(486.917578 66.779062) scale(0.15 -0.15)">
     <defs>
      <path id="DejaVuSans-42" d="M 1259 2228 
L 1259 519 
L 2272 519 
Q 2781 519 3026 730 
Q 3272 941 3272 1375 
Q 3272 1813 3026 2020 
Q 2781 2228 2272 2228 
L 1259 2228 
z
M 1259 4147 
L 1259 2741 
L 2194 2741 
Q 2656 2741 2882 2914 
Q 3109 3088 3109 3444 
Q 3109 3797 2882 3972 
Q 2656 4147 2194 4147 
L 1259 4147 
z
M 628 4666 
L 2241 4666 
Q 2963 4666 3353 4366 
Q 3744 4066 3744 3513 
Q 3744 3084 3544 2831 
Q 3344 2578 2956 2516 
Q 3422 2416 3680 2098 
Q 3938 1781 3938 1306 
Q 3938 681 3513 340 
Q 3088 0 2303 0 
L 628 0 
L 628 4666 
z
" transform="scale(0.015625)"/>
      <path id="DejaVuSans-6e" d="M 3513 2113 
L 3513 0 
L 2938 0 
L 2938 2094 
Q 2938 2591 2744 2837 
Q 2550 3084 2163 3084 
Q 1697 3084 1428 2787 
Q 1159 2491 1159 1978 
L 1159 0 
L 581 0 
L 581 3500 
L 1159 3500 
L 1159 2956 
Q 1366 3272 1645 3428 
Q 1925 3584 2291 3584 
Q 2894 3584 3203 3211 
Q 3513 2838 3513 2113 
z
" transform="scale(0.015625)"/>
      <path id="DejaVuSans-61" d="M 2194 1759 
Q 1497 1759 1228 1600 
Q 959 1441 959 1056 
Q 959 750 1161 570 
Q 1363 391 1709 391 
Q 2188 391 2477 730 
Q 2766 1069 2766 1631 
L 2766 1759 
L 2194 1759 
z
M 3341 1997 
L 3341 0 
L 2766 0 
L 2766 531 
Q 2569 213 2275 61 
Q 1981 -91 1556 -91 
Q 1019 -91 701 211 
Q 384 513 384 1019 
Q 384 1609 779 1909 
Q 1175 2209 1959 2209 
L 2766 2209 
L 2766 2266 
Q 2766 2663 2505 2880 
Q 2244 3097 1772 3097 
Q 1472 3097 1187 3025 
Q 903 2953 641 2809 
L 641 3341 
Q 956 3463 1253 3523 
Q 1550 3584 1831 3584 
Q 2591 3584 2966 3190 
Q 3341 2797 3341 1997 
z
" transform="scale(0.015625)"/>
      <path id="DejaVuSans-41" d="M 2188 4044 
L 1331 1722 
L 3047 1722 
L 2188 4044 
z
M 1831 4666 
L 2547 4666 
L 4325 0 
L 3669 0 
L 3244 1197 
L 1141 1197 
L 716 0 
L 50 0 
L 1831 4666 
z
" transform="scale(0.015625)"/>
      <path id="DejaVuSans-30" d="M 2034 4250 
Q 1547 4250 1301 3770 
Q 1056 3291 1056 2328 
Q 1056 1369 1301 889 
Q 1547 409 2034 409 
Q 2525 409 2770 889 
Q 3016 1369 3016 2328 
Q 3016 3291 2770 3770 
Q 2525 4250 2034 4250 
z
M 2034 4750 
Q 2819 4750 3233 4129 
Q 3647 3509 3647 2328 
Q 3647 1150 3233 529 
Q 2819 -91 2034 -91 
Q 1250 -91 836 529 
Q 422 1150 422 2328 
Q 422 3509 836 4129 
Q 1250 4750 2034 4750 
z
" transform="scale(0.015625)"/>
      <path id="DejaVuSans-38" d="M 2034 2216 
Q 1584 2216 1326 1975 
Q 1069 1734 1069 1313 
Q 1069 891 1326 650 
Q 1584 409 2034 409 
Q 2484 409 2743 651 
Q 3003 894 3003 1313 
Q 3003 1734 2745 1975 
Q 2488 2216 2034 2216 
z
M 1403 2484 
Q 997 2584 770 2862 
Q 544 3141 544 3541 
Q 544 4100 942 4425 
Q 1341 4750 2034 4750 
Q 2731 4750 3128 4425 
Q 3525 4100 3525 3541 
Q 3525 3141 3298 2862 
Q 3072 2584 2669 2484 
Q 3125 2378 3379 2068 
Q 3634 1759 3634 1313 
Q 3634 634 3220 271 
Q 2806 -91 2034 -91 
Q 1263 -91 848 271 
Q 434 634 434 1313 
Q 434 1759 690 2068 
Q 947 2378 1403 2484 
z
M 1172 3481 
Q 1172 3119 1398 2916 
Q 1625 2713 2034 2713 
Q 2441 2713 2670 2916 
Q 2900 3119 2900 3481 
Q 2900 3844 2670 4047 
Q 2441 4250 2034 4250 
Q 1625 4250 1398 4047 
Q 1172 3844 1172 3481 
z
" transform="scale(0.015625)"/>
      <path id="DejaVuSans-47" d="M 3809 666 
L 3809 1919 
L 2778 1919 
L 2778 2438 
L 4434 2438 
L 4434 434 
Q 4069 175 3628 42 
Q 3188 -91 2688 -91 
Q 1594 -91 976 548 
Q 359 1188 359 2328 
Q 359 3472 976 4111 
Q 1594 4750 2688 4750 
Q 3144 4750 3555 4637 
Q 3966 4525 4313 4306 
L 4313 3634 
Q 3963 3931 3569 4081 
Q 3175 4231 2741 4231 
Q 1884 4231 1454 3753 
Q 1025 3275 1025 2328 
Q 1025 1384 1454 906 
Q 1884 428 2741 428 
Q 3075 428 3337 486 
Q 3600 544 3809 666 
z
" transform="scale(0.015625)"/>
      <path id="DejaVuSans-33" d="M 2597 2516 
Q 3050 2419 3304 2112 
Q 3559 1806 3559 1356 
Q 3559 666 3084 287 
Q 2609 -91 1734 -91 
Q 1441 -91 1130 -33 
Q 819 25 488 141 
L 488 750 
Q 750 597 1062 519 
Q 1375 441 1716 441 
Q 2309 441 2620 675 
Q 2931 909 2931 1356 
Q 2931 1769 2642 2001 
Q 2353 2234 1838 2234 
L 1294 2234 
L 1294 2753 
L 1863 2753 
Q 2328 2753 2575 2939 
Q 2822 3125 2822 3475 
Q 2822 3834 2567 4026 
Q 2313 4219 1838 4219 
Q 1578 4219 1281 4162 
Q 984 4106 628 3988 
L 628 4550 
Q 988 4650 1302 4700 
Q 1616 4750 1894 4750 
Q 2613 4750 3031 4423 
Q 3450 4097 3450 3541 
Q 3450 3153 3228 2886 
Q 3006 2619 2597 2516 
z
" transform="scale(0.015625)"/>
      <path id="DejaVuSans-35" d="M 691 4666 
L 3169 4666 
L 3169 4134 
L 1269 4134 
L 1269 2991 
Q 1406 3038 1543 3061 
Q 1681 3084 1819 3084 
Q 2600 3084 3056 2656 
Q 3513 2228 3513 1497 
Q 3513 744 3044 326 
Q 2575 -91 1722 -91 
Q 1428 -91 1123 -41 
Q 819 9 494 109 
L 494 744 
Q 775 591 1075 516 
Q 1375 441 1709 441 
Q 2250 441 2565 725 
Q 2881 1009 2881 1497 
Q 2881 1984 2565 2268 
Q 2250 2553 1709 2553 
Q 1456 2553 1204 2497 
Q 953 2441 691 2322 
L 691 4666 
z
" transform="scale(0.015625)"/>
      <path id="DejaVuSans-5a" d="M 359 4666 
L 4025 4666 
L 4025 4184 
L 1075 531 
L 4097 531 
L 4097 0 
L 288 0 
L 288 481 
L 3238 4134 
L 359 4134 
L 359 4666 
z
" transform="scale(0.015625)"/>
      <path id="DejaVuSans-53" d="M 3425 4513 
L 3425 3897 
Q 3066 4069 2747 4153 
Q 2428 4238 2131 4238 
Q 1616 4238 1336 4038 
Q 1056 3838 1056 3469 
Q 1056 3159 1242 3001 
Q 1428 2844 1947 2747 
L 2328 2669 
Q 3034 2534 3370 2195 
Q 3706 1856 3706 1288 
Q 3706 609 3251 259 
Q 2797 -91 1919 -91 
Q 1588 -91 1214 -16 
Q 841 59 441 206 
L 441 856 
Q 825 641 1194 531 
Q 1563 422 1919 422 
Q 2459 422 2753 634 
Q 3047 847 3047 1241 
Q 3047 1584 2836 1778 
Q 2625 1972 2144 2069 
L 1759 2144 
Q 1053 2284 737 2584 
Q 422 2884 422 3419 
Q 422 4038 858 4394 
Q 1294 4750 2059 4750 
Q 2388 4750 2728 4690 
Q 3069 4631 3425 4513 
z
" transform="scale(0.015625)"/>
     </defs>
     <use xlink:href="#DejaVuSans-42"/>
     <use xlink:href="#DejaVuSans-6e" x="68.603516"/>
     <use xlink:href="#DejaVuSans-61" x="131.982422"/>
     <use xlink:href="#DejaVuSans-41" x="193.261719"/>
     <use xlink:href="#DejaVuSans-30" x="261.669922"/>
     <use xlink:href="#DejaVuSans-38" x="325.292969"/>
     <use xlink:href="#DejaVuSans-47" x="388.916016"/>
     <use xlink:href="#DejaVuSans-30" x="466.40625"/>
     <use xlink:href="#DejaVuSans-33" x="530.029297"/>
     <use xlink:href="#DejaVuSans-30" x="593.652344"/>
     <use xlink:href="#DejaVuSans-35" x="657.275391"/>
     <use xlink:href="#DejaVuSans-33" x="720.898438"/>
     <use xlink:href="#DejaVuSans-30" x="784.521484"/>
     <use xlink:href="#DejaVuSans-30" x="848.144531"/>
     <use xlink:href="#DejaVuSans-5a" x="911.767578"/>
     <use xlink:href="#DejaVuSans-53" x="980.273438"/>
    </g>
   </g>
   <g id="text_2">
    <!-- 0 -->
    <g transform="translate(22.901999 159.647375) scale(0.1 -0.1)">
     <use xlink:href="#DejaVuSans-30"/>
    </g>
   </g>
   <g id="text_3">
    <!-- 5710 -->
    <g transform="translate(1094.136751 159.0955) scale(0.08 -0.08)">
     <defs>
      <path id="DejaVuSans-37" d="M 525 4666 
L 3525 4666 
L 3525 4397 
L 1831 0 
L 1172 0 
L 2766 4134 
L 525 4134 
L 525 4666 
z
" transform="scale(0.015625)"/>
      <path id="DejaVuSans-31" d="M 794 531 
L 1825 531 
L 1825 4091 
L 703 3866 
L 703 4441 
L 1819 4666 
L 2450 4666 
L 2450 531 
L 3481 531 
L 3481 0 
L 794 0 
L 794 531 
z
" transform="scale(0.015625)"/>
     </defs>
     <use xlink:href="#DejaVuSans-35"/>
     <use xlink:href="#DejaVuSans-37" x="63.623047"/>
     <use xlink:href="#DejaVuSans-31" x="127.246094"/>
     <use xlink:href="#DejaVuSans-30" x="190.869141"/>
    </g>
   </g>
   <g id="text_4">
    <!-- 0 -->
    <g transform="translate(23.538249 159.0955) scale(0.08 -0.08)">
     <use xlink:href="#DejaVuSans-30"/>
    </g>
   </g>
   <g id="text_5">
    <!-- 500 -->
    <g transform="translate(112.864492 159.0955) scale(0.08 -0.08)">
     <use xlink:href="#DejaVuSans-35"/>
     <use xlink:href="#DejaVuSans-30" x="63.623047"/>
     <use xlink:href="#DejaVuSans-30" x="127.246094"/>
    </g>
   </g>
   <g id="text_6">
    <!-- 1000 -->
    <g transform="translate(204.735736 159.0955) scale(0.08 -0.08)">
     <use xlink:href="#DejaVuSans-31"/>
     <use xlink:href="#DejaVuSans-30" x="63.623047"/>
     <use xlink:href="#DejaVuSans-30" x="127.246094"/>
     <use xlink:href="#DejaVuSans-30" x="190.869141"/>
    </g>
   </g>
   <g id="text_7">
    <!-- 1500 -->
    <g transform="translate(299.15198 159.0955) scale(0.08 -0.08)">
     <use xlink:href="#DejaVuSans-31"/>
     <use xlink:href="#DejaVuSans-35" x="63.623047"/>
     <use xlink:href="#DejaVuSans-30" x="127.246094"/>
     <use xlink:href="#DejaVuSans-30" x="190.869141"/>
    </g>
   </g>
   <g id="text_8">
    <!-- 2000 -->
    <g transform="translate(393.568223 159.0955) scale(0.08 -0.08)">
     <defs>
      <path id="DejaVuSans-32" d="M 1228 531 
L 3431 531 
L 3431 0 
L 469 0 
L 469 531 
Q 828 903 1448 1529 
Q 2069 2156 2228 2338 
Q 2531 2678 2651 2914 
Q 2772 3150 2772 3378 
Q 2772 3750 2511 3984 
Q 2250 4219 1831 4219 
Q 1534 4219 1204 4116 
Q 875 4013 500 3803 
L 500 4441 
Q 881 4594 1212 4672 
Q 1544 4750 1819 4750 
Q 2544 4750 2975 4387 
Q 3406 4025 3406 3419 
Q 3406 3131 3298 2873 
Q 3191 2616 2906 2266 
Q 2828 2175 2409 1742 
Q 1991 1309 1228 531 
z
" transform="scale(0.015625)"/>
     </defs>
     <use xlink:href="#DejaVuSans-32"/>
     <use xlink:href="#DejaVuSans-30" x="63.623047"/>
     <use xlink:href="#DejaVuSans-30" x="127.246094"/>
     <use xlink:href="#DejaVuSans-30" x="190.869141"/>
    </g>
   </g>
   <g id="text_9">
    <!-- 2500 -->
    <g transform="translate(487.984467 159.0955) scale(0.08 -0.08)">
     <use xlink:href="#DejaVuSans-32"/>
     <use xlink:href="#DejaVuSans-35" x="63.623047"/>
     <use xlink:href="#DejaVuSans-30" x="127.246094"/>
     <use xlink:href="#DejaVuSans-30" x="190.869141"/>
    </g>
   </g>
   <g id="text_10">
    <!-- 3000 -->
    <g transform="translate(582.400711 159.0955) scale(0.08 -0.08)">
     <use xlink:href="#DejaVuSans-33"/>
     <use xlink:href="#DejaVuSans-30" x="63.623047"/>
     <use xlink:href="#DejaVuSans-30" x="127.246094"/>
     <use xlink:href="#DejaVuSans-30" x="190.869141"/>
    </g>
   </g>
   <g id="text_11">
    <!-- 3500 -->
    <g transform="translate(676.816954 159.0955) scale(0.08 -0.08)">
     <use xlink:href="#DejaVuSans-33"/>
     <use xlink:href="#DejaVuSans-35" x="63.623047"/>
     <use xlink:href="#DejaVuSans-30" x="127.246094"/>
     <use xlink:href="#DejaVuSans-30" x="190.869141"/>
    </g>
   </g>
   <g id="text_12">
    <!-- 4000 -->
    <g transform="translate(771.233198 159.0955) scale(0.08 -0.08)">
     <defs>
      <path id="DejaVuSans-34" d="M 2419 4116 
L 825 1625 
L 2419 1625 
L 2419 4116 
z
M 2253 4666 
L 3047 4666 
L 3047 1625 
L 3713 1625 
L 3713 1100 
L 3047 1100 
L 3047 0 
L 2419 0 
L 2419 1100 
L 313 1100 
L 313 1709 
L 2253 4666 
z
" transform="scale(0.015625)"/>
     </defs>
     <use xlink:href="#DejaVuSans-34"/>
     <use xlink:href="#DejaVuSans-30" x="63.623047"/>
     <use xlink:href="#DejaVuSans-30" x="127.246094"/>
     <use xlink:href="#DejaVuSans-30" x="190.869141"/>
    </g>
   </g>
   <g id="text_13">
    <!-- 4500 -->
    <g transform="translate(865.649442 159.0955) scale(0.08 -0.08)">
     <use xlink:href="#DejaVuSans-34"/>
     <use xlink:href="#DejaVuSans-35" x="63.623047"/>
     <use xlink:href="#DejaVuSans-30" x="127.246094"/>
     <use xlink:href="#DejaVuSans-30" x="190.869141"/>
    </g>
   </g>
   <g id="text_14">
    <!-- 5000 -->
    <g transform="translate(960.065685 159.0955) scale(0.08 -0.08)">
     <use xlink:href="#DejaVuSans-35"/>
     <use xlink:href="#DejaVuSans-30" x="63.623047"/>
     <use xlink:href="#DejaVuSans-30" x="127.246094"/>
     <use xlink:href="#DejaVuSans-30" x="190.869141"/>
    </g>
   </g>
   <g id="text_15">
    <!-- 5500 -->
    <g transform="translate(1054.481929 159.0955) scale(0.08 -0.08)">
     <use xlink:href="#DejaVuSans-35"/>
     <use xlink:href="#DejaVuSans-35" x="63.623047"/>
     <use xlink:href="#DejaVuSans-30" x="127.246094"/>
     <use xlink:href="#DejaVuSans-30" x="190.869141"/>
    </g>
   </g>
   <g id="legend_1">
    <g id="patch_2">
     <path d="M 1007.36875 77.82025 
L 1060.4 77.82025 
Q 1062.4 77.82025 1062.4 75.82025 
L 1062.4 47.464 
Q 1062.4 45.464 1060.4 45.464 
L 1007.36875 45.464 
Q 1005.36875 45.464 1005.36875 47.464 
L 1005.36875 75.82025 
Q 1005.36875 77.82025 1007.36875 77.82025 
z
" style="fill: #ffffff; opacity: 0.8; stroke: #cccccc; stroke-linejoin: miter"/>
    </g>
    <g id="patch_3">
     <path d="M 1009.36875 57.062438 
L 1029.36875 57.062438 
L 1029.36875 50.062438 
L 1009.36875 50.062438 
z
" style="fill: #b8ddb1; stroke: #b8ddb1; stroke-linejoin: miter"/>
    </g>
    <g id="text_16">
     <!-- CDS -->
     <g transform="translate(1037.36875 57.062438) scale(0.1 -0.1)">
      <defs>
       <path id="DejaVuSans-43" d="M 4122 4306 
L 4122 3641 
Q 3803 3938 3442 4084 
Q 3081 4231 2675 4231 
Q 1875 4231 1450 3742 
Q 1025 3253 1025 2328 
Q 1025 1406 1450 917 
Q 1875 428 2675 428 
Q 3081 428 3442 575 
Q 3803 722 4122 1019 
L 4122 359 
Q 3791 134 3420 21 
Q 3050 -91 2638 -91 
Q 1578 -91 968 557 
Q 359 1206 359 2328 
Q 359 3453 968 4101 
Q 1578 4750 2638 4750 
Q 3056 4750 3426 4639 
Q 3797 4528 4122 4306 
z
" transform="scale(0.015625)"/>
       <path id="DejaVuSans-44" d="M 1259 4147 
L 1259 519 
L 2022 519 
Q 2988 519 3436 956 
Q 3884 1394 3884 2338 
Q 3884 3275 3436 3711 
Q 2988 4147 2022 4147 
L 1259 4147 
z
M 628 4666 
L 1925 4666 
Q 3281 4666 3915 4102 
Q 4550 3538 4550 2338 
Q 4550 1131 3912 565 
Q 3275 0 1925 0 
L 628 0 
L 628 4666 
z
" transform="scale(0.015625)"/>
      </defs>
      <use xlink:href="#DejaVuSans-43"/>
      <use xlink:href="#DejaVuSans-44" x="69.824219"/>
      <use xlink:href="#DejaVuSans-53" x="146.826172"/>
     </g>
    </g>
    <g id="patch_4">
     <path d="M 1009.36875 71.740563 
L 1029.36875 71.740563 
L 1029.36875 64.740563 
L 1009.36875 64.740563 
z
" style="fill: #fee59e; stroke: #fee59e; stroke-linejoin: miter"/>
    </g>
    <g id="text_17">
     <!-- UTR -->
     <g transform="translate(1037.36875 71.740563) scale(0.1 -0.1)">
      <defs>
       <path id="DejaVuSans-55" d="M 556 4666 
L 1191 4666 
L 1191 1831 
Q 1191 1081 1462 751 
Q 1734 422 2344 422 
Q 2950 422 3222 751 
Q 3494 1081 3494 1831 
L 3494 4666 
L 4128 4666 
L 4128 1753 
Q 4128 841 3676 375 
Q 3225 -91 2344 -91 
Q 1459 -91 1007 375 
Q 556 841 556 1753 
L 556 4666 
z
" transform="scale(0.015625)"/>
       <path id="DejaVuSans-54" d="M -19 4666 
L 3928 4666 
L 3928 4134 
L 2272 4134 
L 2272 0 
L 1638 0 
L 1638 4134 
L -19 4134 
L -19 4666 
z
" transform="scale(0.015625)"/>
       <path id="DejaVuSans-52" d="M 2841 2188 
Q 3044 2119 3236 1894 
Q 3428 1669 3622 1275 
L 4263 0 
L 3584 0 
L 2988 1197 
Q 2756 1666 2539 1819 
Q 2322 1972 1947 1972 
L 1259 1972 
L 1259 0 
L 628 0 
L 628 4666 
L 2053 4666 
Q 2853 4666 3247 4331 
Q 3641 3997 3641 3322 
Q 3641 2881 3436 2590 
Q 3231 2300 2841 2188 
z
M 1259 4147 
L 1259 2491 
L 2053 2491 
Q 2509 2491 2742 2702 
Q 2975 2913 2975 3322 
Q 2975 3731 2742 3939 
Q 2509 4147 2053 4147 
L 1259 4147 
z
" transform="scale(0.015625)"/>
      </defs>
      <use xlink:href="#DejaVuSans-55"/>
      <use xlink:href="#DejaVuSans-54" x="73.193359"/>
      <use xlink:href="#DejaVuSans-52" x="134.277344"/>
     </g>
    </g>
   </g>
  </g>
 </g>
 <defs>
  <clipPath id="p8a22460b1d">
   <rect x="7.2" y="7.2" width="1116" height="221.76"/>
  </clipPath>
 </defs>
</svg>
