<?xml version="1.0" encoding="utf-8"?>
<!-- Generator: Adobe Illustrator 26.0.0, SVG Export Plug-In . SVG Version: 6.00 Build 0)  -->
<svg version="1.1" id="图层_1" xmlns="http://www.w3.org/2000/svg" xmlns:xlink="http://www.w3.org/1999/xlink" x="0px" y="0px"
	 viewBox="0 0 595.3 841.9" style="enable-background:new 0 0 595.3 841.9;" xml:space="preserve">
<style type="text/css">
	.st0{fill:#009944;stroke:#00913A;stroke-width:10.6667;stroke-linecap:round;stroke-linejoin:round;stroke-miterlimit:10.6667;}
	.st1{fill:#22AC38;stroke:#22AC38;stroke-width:10.6667;stroke-linecap:round;stroke-linejoin:round;stroke-miterlimit:10.6667;}
	.st2{fill:#FFF100;stroke:#FFF100;stroke-width:10.6667;stroke-linecap:round;stroke-linejoin:round;stroke-miterlimit:21.3333;}
	.st3{fill:#FFFFFF;stroke:#FFF100;stroke-width:10.6667;stroke-linecap:round;stroke-linejoin:round;stroke-miterlimit:21.3333;}
</style>
<circle class="st0" cx="297.7" cy="301.8" r="187.5"/>
<g>
	<path class="st1" d="M470.3,127.5c0,0-90.5-15.5-121.7,34.5c-23.2,37.3,8.7,77.7,8.7,77.7 M470.3,127.5l-113,112.3 M470.3,127.5
		c0,0,15.6,89.9-34.8,120.9c-37.5,23.1-78.2-8.6-78.2-8.6 M357.3,239.8l-26.1,25.9"/>
	<path class="st1" d="M357.3,360.7l-26.1-25.9 M470.3,472.9c0,0-90.5,15.5-121.7-34.5c-23.2-37.3,8.7-77.7,8.7-77.7L470.3,472.9z
		 M470.3,472.9c0,0,15.6-89.9-34.8-120.9c-37.5-23.1-78.2,8.6-78.2,8.6L470.3,472.9z M470.3,472.9l-113-112.3L470.3,472.9z"/>
	<path class="st1" d="M237.9,239.8l26.1,25.9 M124.9,127.5c0,0,90.5-15.5,121.7,34.5c23.2,37.3-8.7,77.7-8.7,77.7L124.9,127.5z
		 M124.9,127.5c0,0-15.6,89.9,34.8,120.9c37.5,23.1,78.2-8.6,78.2-8.6L124.9,127.5z M124.9,127.5l113,112.3L124.9,127.5z"/>
	<path class="st1" d="M237.9,360.7l26.1-25.9 M124.9,472.9c0,0,90.5,15.5,121.7-34.5c23.2-37.3-8.7-77.7-8.7-77.7L124.9,472.9z
		 M124.9,472.9c0,0-15.6-89.9,34.8-120.9c37.5-23.1,78.2,8.6,78.2,8.6L124.9,472.9z M124.9,472.9l113-112.3L124.9,472.9z"/>
</g>
<path class="st2" d="M423.6,375.9H171.8c-40.8,0-74.1-33.3-74.1-74.1v0c0-40.8,33.3-74.1,74.1-74.1h251.8
	c40.8,0,74.1,33.3,74.1,74.1v0C497.7,342.6,464.3,375.9,423.6,375.9z"/>
<path class="st2" d="M223.6,427.7V175.9c0-40.8,33.3-74.1,74.1-74.1h0c40.8,0,74.1,33.3,74.1,74.1v251.8c0,40.8-33.3,74.1-74.1,74.1
	h0C256.9,501.8,223.6,468.5,223.6,427.7z"/>
<circle class="st3" cx="297.7" cy="301.8" r="62.5"/>
</svg>
