<?xml version="1.0" encoding="utf-8"?>
<!-- Generator: Adobe Illustrator 26.0.0, SVG Export Plug-In . SVG Version: 6.00 Build 0)  -->
<svg version="1.1" id="图层_1" xmlns="http://www.w3.org/2000/svg" xmlns:xlink="http://www.w3.org/1999/xlink" x="0px" y="0px"
	 viewBox="0 0 500 500" style="enable-background:new 0 0 500 500;" xml:space="preserve">
<style type="text/css">
	.st0{fill:#8ABA29;stroke:#040000;stroke-miterlimit:10;}
	.st1{fill:#D0D623;stroke:#773086;stroke-miterlimit:10;}
	.st2{fill:none;stroke:#040000;stroke-miterlimit:10;}
</style>
<g>
	<path class="st0" d="M442.1,151.8H314c-4.4,0-7.9-4.9-7.9-11V61c0-6,3.6-11,7.9-11h128.1c4.4,0,7.9,4.9,7.9,11v79.8
		C450,146.8,446.4,151.8,442.1,151.8z"/>
	<path class="st0" d="M442.1,300.9H314c-4.4,0-7.9-4.9-7.9-11v-79.8c0-6,3.6-11,7.9-11h128.1c4.4,0,7.9,4.9,7.9,11v79.8
		C450,295.9,446.4,300.9,442.1,300.9z"/>
	<path class="st0" d="M442.1,450H314c-4.4,0-7.9-4.9-7.9-11v-79.8c0-6,3.6-11,7.9-11h128.1c4.4,0,7.9,4.9,7.9,11V439
		C450,445.1,446.4,450,442.1,450z"/>
	<path class="st0" d="M186,151.8H57.9c-4.4,0-7.9-4.9-7.9-11V61c0-6,3.6-11,7.9-11H186c4.4,0,7.9,4.9,7.9,11v39.9v39.9
		C194,146.8,190.4,151.8,186,151.8z"/>
	<path class="st0" d="M186,300.9H57.9c-4.4,0-7.9-4.9-7.9-11v-79.8c0-6,3.6-11,7.9-11H186c4.4,0,7.9,4.9,7.9,11v79.8
		C194,295.9,190.4,300.9,186,300.9z"/>
	<path class="st0" d="M186,450H57.9c-4.4,0-7.9-4.9-7.9-11v-79.8c0-6,3.6-11,7.9-11H186c4.4,0,7.9,4.9,7.9,11V439
		C194,445.1,190.4,450,186,450z"/>
	<path class="st1" d="M286.6,151.8h-26.5c-4.4,0-7.9-4.9-7.9-11V61c0-6,3.6-11,7.9-11h26.5c4.4,0,7.9,4.9,7.9,11v79.8
		C294.6,146.8,291,151.8,286.6,151.8z"/>
	<path class="st1" d="M244.2,450h-26.5c-4.4,0-7.9-4.9-7.9-11v-79.8c0-6,3.6-11,7.9-11h26.5c4.4,0,7.9,4.9,7.9,11V439
		C252.2,445.1,248.6,450,244.2,450z"/>
	<line class="st2" x1="252.2" y1="100.9" x2="194" y2="100.9"/>
	<line class="st2" x1="194" y1="250" x2="306" y2="250"/>
	<line class="st2" x1="294.6" y1="100.9" x2="306" y2="100.9"/>
	<line class="st2" x1="194" y1="399.1" x2="209.8" y2="399.1"/>
	<line class="st2" x1="252.2" y1="399.1" x2="306" y2="399.1"/>
</g>
</svg>
