<?xml version="1.0" encoding="utf-8"?>
<!-- Generator: Adobe Illustrator 26.0.0, SVG Export Plug-In . SVG Version: 6.00 Build 0)  -->
<svg version="1.1" id="图层_1" xmlns="http://www.w3.org/2000/svg" xmlns:xlink="http://www.w3.org/1999/xlink" x="0px" y="0px"
	 viewBox="0 0 500 500" style="enable-background:new 0 0 500 500;" xml:space="preserve">
<style type="text/css">
	.st0{fill:#3C73BA;}
	.st1{fill:#014277;}
</style>
<path class="st0" d="M153.4,25.4c7.2-1.7,14.9,1.5,17,7.2c2.2,5.7-2,11.6-9.2,13.3c-56.9,13.3-83.4,33.8-83.4,61.9
	c0,18.1,31.2,46.4,81.4,75c43,24.5,94.1,45.7,115.1,48.7c7.4,1,12.5,6.5,11.2,12.3c-1.2,5.8-8.3,9.8-15.7,8.8c-0.1,0-0.3,0-0.4-0.1
	c-26-3.7-80.3-26.2-126.3-52.5c-57.1-32.6-92.6-64.8-92.6-92.3C50.5,68.7,86.1,41.1,153.4,25.4z"/>
<path class="st0" d="M260.3,30c4-5,12.5-6.5,18.8-3.4c0,0,0,0,0,0c48.2,23.7,75.5,56.1,81,96.5c6,43.9-56.7,83-184.5,120.5l0.8-0.2
	l-1.6,0.6c-71.5,29.3-99.7,58.7-89.5,88.4l0.3,0.9c7.3,19.9,56.5,48.1,131,77.9c27.1,10.9,55.7,21.3,84,30.8
	c9.9,3.3,19.1,6.3,27.2,8.9c3.4,1.1,6.8,2.1,10.2,3.2c7,2.1,10.5,8.3,7.8,13.9c-2.7,5.5-10.7,8.3-17.7,6.1l0,0l-2.8-0.9
	c-2.2-0.7-4.8-1.5-7.8-2.4c-9.3-3-18.5-6-27.8-9.1c-28.8-9.7-58-20.3-85.7-31.4c-82.1-32.9-134.4-62.9-144.8-91.1
	c-15.8-42.8,21-81.3,105.2-115.3c0.5-0.2,1-0.4,1.5-0.5c116.6-34.2,171-68.1,166.9-98.2c-4.6-33.6-27.1-60.3-68.3-80.6
	C258.2,41.6,256.3,35,260.3,30L260.3,30z"/>
<path class="st0" d="M266.3,383.6c6.9-2.4,15,0.1,18,5.5c3,5.4,0,11.6-6.9,14.1L75.4,474.1c-6.9,2.4-15-0.1-18-5.5
	c-3-5.4,0-11.6,6.9-14.1L266.3,383.6z"/>
<path class="st1" d="M369.4,279c7.6,0,13.7,4.8,13.7,10.7s-6.1,10.7-13.7,10.7c0,0,0,0,0,0H145.6c-7.6,0-13.7-4.8-13.7-10.7
	S138,279,145.6,279c0,0,0,0,0,0H369.4z M150.8,345.7l87.5,1c7.6,0,13.6,4.8,13.6,10.8c0,5.9-6.2,10.7-13.7,10.7c-0.1,0-0.2,0-0.3,0
	l-87.5-1c-7.6-0.1-13.6-5-13.5-10.9C137.1,350.3,143.3,345.6,150.8,345.7L150.8,345.7z"/>
<path class="st0" d="M296.2,345.7l126.2,1c7.6,0.1,13.6,4.9,13.5,10.8c-0.1,5.9-6.3,10.7-13.8,10.6l-126.2-1
	c-7.6-0.1-13.6-4.9-13.5-10.8C282.4,350.3,288.6,345.6,296.2,345.7z M436.8,279c7.6,0,13.7,4.8,13.7,10.7c0,5.9-6.1,10.7-13.7,10.7
	c0,0,0,0,0,0H405c-7.6,0-13.7-4.8-13.7-10.7c0-5.9,6.1-10.7,13.7-10.7c0,0,0,0,0,0H436.8L436.8,279z"/>
<path class="st1" d="M153.2,72.8l70.4,1c7.5,0.1,13.6,5,13.4,10.9c-0.1,5.9-6.4,10.6-13.9,10.5l-70.4-1c-7.5-0.1-13.6-5-13.4-10.9
	S145.7,72.7,153.2,72.8z M148.3,129l143.1,1c7.6,0.1,13.6,4.9,13.5,10.8c-0.1,5.9-6.2,10.7-13.8,10.6l0,0l-143.1-1
	c-7.6-0.1-13.6-4.9-13.5-10.8C134.5,133.7,140.7,129,148.3,129C148.3,129,148.3,129,148.3,129z"/>
<path class="st0" d="M411.4,130.1c7.6,0,13.7,4.8,13.7,10.7c0,5.9-6.1,10.7-13.7,10.7c0,0,0,0,0,0h-29.5c-7.6,0-13.7-4.8-13.7-10.7
	c0-5.9,6.1-10.7,13.7-10.7H411.4L411.4,130.1z"/>
</svg>
