<?xml version="1.0" encoding="utf-8"?>
<!-- Generator: Adobe Illustrator 26.0.0, SVG Export Plug-In . SVG Version: 6.00 Build 0)  -->
<svg version="1.1" id="图层_1" xmlns="http://www.w3.org/2000/svg" xmlns:xlink="http://www.w3.org/1999/xlink" x="0px" y="0px"
	 viewBox="0 0 500 500" style="enable-background:new 0 0 500 500;" xml:space="preserve">
<style type="text/css">
	.st0{fill:#189343;stroke:#040000;stroke-width:5;stroke-miterlimit:10;}
	.st1{fill:#F0E62A;stroke:#040000;stroke-width:5;stroke-miterlimit:10;}
	.st2{fill:#D0D623;stroke:#040000;stroke-width:5;stroke-miterlimit:10;}
	.st3{fill:#8ABA29;stroke:#040000;stroke-width:5;stroke-miterlimit:10;}
	.st4{fill:#026636;stroke:#040000;stroke-width:5;stroke-miterlimit:10;}
	.st5{fill:#2CA339;stroke:#040000;stroke-width:5;stroke-miterlimit:10;}
	.st6{fill:none;stroke:#040000;stroke-width:5;stroke-miterlimit:10;}
</style>
<circle class="st0" cx="403.9" cy="98.7" r="45"/>
<circle class="st1" cx="90.9" cy="338.7" r="17.5"/>
<circle class="st2" cx="360.2" cy="442.1" r="25"/>
<ellipse class="st1" cx="145" cy="47.6" rx="22.5" ry="22.6"/>
<circle class="st3" cx="444.5" cy="274.8" r="27.5"/>
<circle class="st3" cx="179.2" cy="418.4" r="30"/>
<circle class="st4" cx="291.3" cy="295.7" r="50"/>
<circle class="st5" cx="158.9" cy="169" r="42.5"/>
<ellipse class="st1" cx="46.5" cy="151.8" rx="21.5" ry="22.6"/>
<line class="st6" x1="145.1" y1="70.1" x2="152.7" y2="125.9"/>
<line class="st6" x1="67.9" y1="156.8" x2="116.5" y2="169"/>
<line class="st6" x1="188.3" y1="195.9" x2="250.5" y2="262.6"/>
<line class="st6" x1="377.8" y1="138.2" x2="318.9" y2="253.6"/>
<line class="st6" x1="422" y1="141.9" x2="440.6" y2="245.6"/>
<line class="st6" x1="321.9" y1="337.9" x2="351.3" y2="417.2"/>
<line class="st6" x1="201" y1="394.3" x2="262.5" y2="338.7"/>
<line class="st6" x1="106.5" y1="351.6" x2="154.7" y2="397.8"/>
</svg>
