<?xml version="1.0" encoding="utf-8"?>
<!-- Generator: Adobe Illustrator 26.0.0, SVG Export Plug-In . SVG Version: 6.00 Build 0)  -->
<svg version="1.1" id="图层_1" xmlns="http://www.w3.org/2000/svg" xmlns:xlink="http://www.w3.org/1999/xlink" x="0px" y="0px"
	 viewBox="0 0 200 200" style="enable-background:new 0 0 200 200;" xml:space="preserve">
<style type="text/css">
	.st0{fill:#9D953D;}
	.st1{fill:#FFFFFF;}
</style>
<path class="st0" d="M0,100c0,55.2,44.8,100,100,100s100-44.8,100-100S155.2,0,100,0S0,44.8,0,100z"/>
<path class="st1" d="M95.7,31.9c0.2,12.1,1.3,24.2,2.9,36.2c1.6,12,4,23.8,7.1,35.4c3.1,11.6,7.1,22.9,12.3,33.6
	c2.6,5.3,5.5,10.4,8.7,15.4c3.2,4.8,6.8,9.4,10.8,13.7l0,0.1c1.8,1.9,1.7,4.9-0.3,6.7c-1.9,1.8-4.9,1.7-6.7-0.3
	c-0.1-0.1-0.1-0.2-0.2-0.2c-4-4.9-7.6-10.1-10.7-15.6c-3.1-5.4-5.8-11.1-8.1-16.9c-4.6-11.5-8-23.4-10.4-35.4
	c-2.4-12-4-24.1-4.8-36.3C95.3,56.2,95,44,95.7,31.9L95.7,31.9z"/>
<path class="st1" d="M66.9,117.1c2.6,3.8,5.9,7,9.4,9.8c3.5,2.8,7.3,5.1,11.3,7.1c1,0.5,2,0.9,3,1.3l1.5,0.6l1.6,0.5l3.1,1l3.2,0.8
	l1.6,0.4c0.5,0.1,1.1,0.2,1.6,0.3l3.2,0.6c2.1,0.3,4.3,0.4,6.4,0.7l0.4,0c2.6,0.3,4.5,2.7,4.2,5.3c-0.3,2.6-2.6,4.4-5.2,4.2
	c-0.3,0-0.5-0.1-0.8-0.2c-2.3-0.7-4.7-1.2-7-2l-3.4-1.2c-0.6-0.2-1.1-0.4-1.7-0.6l-1.7-0.7l-3.3-1.5l-3.2-1.7l-1.6-0.9l-1.5-1
	c-1-0.7-2-1.3-3-2c-3.8-2.7-7.4-5.9-10.5-9.4C71.5,125.1,68.8,121.3,66.9,117.1L66.9,117.1z M134.5,89.2c-3.4,2.1-6.3,4.9-8.8,7.9
	c-2.5,3-4.6,6.4-6.2,9.9c-0.4,0.9-0.7,1.8-1.1,2.7l-0.5,1.3l-0.4,1.4c-0.3,0.9-0.6,1.8-0.8,2.8l-0.6,2.8l-0.3,1.4l-0.2,1.4l-0.3,2.8
	c-0.1,1.9-0.1,3.8-0.2,5.7l0,0.3c-0.1,1.8-1.6,3.1-3.3,3.1c-1.8-0.1-3.1-1.6-3.1-3.3c0,0,0,0,0,0c0-0.1,0-0.3,0-0.4
	c0.4-2.1,0.6-4.2,1.1-6.2l0.8-3.1l0.4-1.5l0.5-1.5l1-3c0.4-1,0.8-1.9,1.3-2.9l0.6-1.4l0.8-1.4c0.5-0.9,1-1.8,1.5-2.7
	c2.2-3.5,4.8-6.7,7.8-9.5C127.5,93.3,130.8,90.9,134.5,89.2z M109.5,61.8c-3.7,1.4-7.9,2.1-12.7,2c-9.3-0.1-16.2-3-20.5-8.6
	c-7.8-10.1-4.4-25.1-4.2-25.8l3.1,0.7c0,0.1-3.3,14.2,3.6,23.1c3.7,4.8,9.8,7.2,18,7.3c8.5,0.1,15-2.3,19.4-7.1
	c7.7-8.5,6.2-21.9,6.2-22l3.2-0.4c0.1,0.6,1.6,14.9-7,24.5C116.1,58.4,113,60.5,109.5,61.8z"/>
<path class="st1" d="M103.6,62.7c-2.2,0.8-4.5,1.2-6.8,1.1c-5.6,0-9.9-1.9-12.7-5.7c-7-9.2-2.5-26.2-2.3-26.9l3.1,0.8
	c0,0.2-4.3,16.2,1.8,24.2c2.2,2.9,5.6,4.4,10.2,4.4c4.6,0,8-1.4,10.4-4.4c6.4-8,2.8-24.2,2.8-24.3l3.1-0.7c0.2,0.7,3.9,17.8-3.4,27
	C108.1,60.3,106,61.8,103.6,62.7z"/>
<path class="st1" d="M70.4,29.6c0,2.1,1.7,3.9,3.9,3.9s3.9-1.7,3.9-3.9c0,0,0,0,0,0c0-2.1-1.7-3.9-3.9-3.9S70.4,27.5,70.4,29.6
	C70.4,29.6,70.4,29.6,70.4,29.6z"/>
<path class="st1" d="M80.6,29.9c0,2.1,1.7,3.9,3.9,3.9c2.1,0,3.9-1.7,3.9-3.9c0,0,0,0,0,0c0-2.1-1.7-3.9-3.9-3.9
	C82.4,26,80.6,27.7,80.6,29.9C80.6,29.9,80.6,29.9,80.6,29.9z"/>
<path class="st1" d="M92.2,31.7c0,2.1,1.7,3.9,3.9,3.9c2.1,0,3.9-1.7,3.9-3.9c0,0,0,0,0,0c0-2.1-1.7-3.9-3.9-3.9
	S92.2,29.6,92.2,31.7C92.2,31.7,92.2,31.7,92.2,31.7z"/>
<path class="st1" d="M107.1,30.2c0,2.1,1.7,3.9,3.9,3.9c2.1,0,3.9-1.7,3.9-3.9c0,0,0,0,0,0c0-2.1-1.7-3.9-3.9-3.9
	S107.1,28,107.1,30.2L107.1,30.2z"/>
<path class="st1" d="M119.9,30.7c0,2.1,1.7,3.9,3.9,3.9s3.9-1.7,3.9-3.9s-1.7-3.9-3.9-3.9S119.9,28.5,119.9,30.7L119.9,30.7z"/>
<path class="st1" d="M94.5,31.7l3.2,0L98,63.1l-3.2,0L94.5,31.7z M91.5,84.1c4.4-12.5-10.3-22.9-20.6-14.5l-7.2,5.9
	c-1.2,1-2.7,1.2-4.2,0.7l-8.5-3c-12.5-4.4-22.9,10.3-14.5,20.6l5.5,6.7c1.2,1.5,1.5,3.4,0.9,5.2l-2.8,7.9
	c-4.4,12.5,10.3,22.9,20.6,14.5l6.9-5.6c1.4-1.1,3.2-1.4,4.8-0.8l8.1,2.9C93,129,103.4,114.3,95.1,104l-6.3-7.8
	c-0.7-0.8-0.8-1.9-0.5-2.9L91.5,84.1z M62.7,106.2c-1.7,0.6-3.6-0.2-4.3-1.9c-0.6-1.7,0.2-3.6,1.9-4.3c1.7-0.6,3.6,0.2,4.3,1.9
	C65.3,103.7,64.4,105.6,62.7,106.2C62.7,106.2,62.7,106.2,62.7,106.2z M59.7,93.4c-0.7-1.7,0.2-3.6,1.9-4.3c1.7-0.7,3.6,0.2,4.3,1.9
	c0.7,1.7-0.2,3.6-1.9,4.3c0,0,0,0,0,0C62.3,96,60.4,95.1,59.7,93.4C59.7,93.4,59.7,93.4,59.7,93.4z M72.9,109.4
	c-1.7,0.6-3.6-0.2-4.3-1.9c-0.6-1.7,0.2-3.6,1.9-4.3c1.7-0.6,3.6,0.2,4.3,1.9C75.5,106.9,74.6,108.8,72.9,109.4
	C72.9,109.4,72.9,109.4,72.9,109.4z M72.5,99.1c-1.7,0.7-3.6-0.2-4.3-1.9c-0.7-1.7,0.2-3.6,1.9-4.3c1.7-0.7,3.6,0.2,4.3,1.9
	c0,0,0,0,0,0C75.1,96.6,74.3,98.5,72.5,99.1C72.5,99.2,72.5,99.2,72.5,99.1L72.5,99.1z M146,63.4c-0.1-9.9-13.3-13.4-18.3-4.8
	l-3.5,6c-0.6,1-1.6,1.6-2.7,1.6l-6.8,0.1c-9.9,0.1-13.4,13.3-4.8,18.3l5.6,3.3c1.2,0.7,2,2,2,3.4l0.1,6.3
	c0.1,9.9,13.3,13.4,18.3,4.8l3.4-5.8c0.7-1.1,1.9-1.8,3.2-1.9l6.5-0.1c9.9-0.1,13.4-13.3,4.8-18.3l-6.5-3.8
	c-0.7-0.4-1.1-1.1-1.1-1.9L146,63.4z M130.7,87.3c-1.3,1.1-3.2,1-4.3-0.3c-1.1-1.3-1-3.2,0.3-4.3s3.2-1,4.3,0.3c0,0,0,0,0,0
	C132.1,84.3,132,86.2,130.7,87.3z M124.1,77.3c-1.1-1.3-1-3.2,0.3-4.3c1.3-1.1,3.2-1,4.3,0.3c1.1,1.3,1,3.2-0.3,4.3
	C127.1,78.7,125.2,78.6,124.1,77.3C124.1,77.3,124.1,77.3,124.1,77.3z M140.4,86.8c-1.3,1.1-3.2,1-4.3-0.3c-1.1-1.3-1-3.2,0.3-4.3
	c1.3-1.1,3.2-1,4.3,0.3C141.8,83.8,141.7,85.7,140.4,86.8C140.4,86.8,140.4,86.8,140.4,86.8L140.4,86.8z M136.9,78.1
	c-1.3,1.1-3.2,1-4.3-0.3c-1.1-1.3-1-3.2,0.3-4.3c1.3-1.1,3.2-1,4.3,0.3c0,0,0,0,0,0C138.2,75.1,138.1,77.1,136.9,78.1L136.9,78.1z"
	/>
</svg>
