<?xml version="1.0" standalone="no"?><!DOCTYPE svg PUBLIC "-//W3C//DTD SVG 1.1//EN" "http://www.w3.org/Graphics/SVG/1.1/DTD/svg11.dtd"><svg t="1722410522408" class="icon" viewBox="0 0 1024 1024" version="1.1" xmlns="http://www.w3.org/2000/svg" p-id="17312" xmlns:xlink="http://www.w3.org/1999/xlink" width="200" height="200"><path d="M601.989 701.022c16.581 4.13 31.983 8.839 46.825 15.2 44.351 19.01 81.651 46.726 107.688 88.066a165.177 165.177 0 0 1 26.044 87.336c0.115 8.841-7.415 14.192-14.518 10.389a9.963 9.963 0 0 1-5.44-9.424c0-7.512-1.042-14.927-1.83-22.378-0.443-4.193-2.1-4.993-5.966-4.99q-172.49 0.149-344.981 0.081c-33.165 0-66.33 0.064-99.494-0.085-3.923-0.017-5.472 0.943-5.9 5.069-0.733 7.119-1.706 14.2-1.828 21.378s-4.26 11.7-10.309 11.506c-6.031-0.193-9.78-4.828-9.643-12.121 0.725-38.487 13.687-72.649 37.212-102.792 31.376-40.2 72.93-65.465 120.921-80.979 3.635-1.175 7.336-2.15 11.014-3.191 3.5-0.992 7.019-1.948 10.08-2.8-84.45-38.447-132-102.764-128.422-196.918 3.275-86.219 50.546-144.627 128.721-179.16-11.058-3-22.407-6.02-33.407-10.139-46.278-17.33-85.856-43.837-114.656-84.734-19.959-28.342-30.774-59.877-31.456-94.694-0.15-7.647 3.633-12.345 9.858-12.4 6.19-0.058 9.859 4.473 10.154 12.222 0.2 5.155 0.8 10.295 0.967 15.45 0.113 3.512 1.732 4.276 5.021 4.265 34.331-0.113 68.663-0.069 102.994-0.069q171.74 0 343.481 0.148c5.306 0.009 6.561-1.777 6.584-6.421 0.025-4.985 0.606-9.966 0.874-14.952 0.346-6.413 4.454-10.744 10.183-10.643s9.856 4.567 9.787 10.983c-0.382 35.366-11.233 67.393-31.515 96.176-28.814 40.891-68.392 67.391-114.688 84.695a328.871 328.871 0 0 1-33.035 9.984C688.48 364 734.93 428.887 731.965 523.906c-2.444 78.338-53.335 147.757-129.976 177.116zM360.5 461.145c-0.455 3.771 2.5 2 3.758 2q168.146 0.111 336.291 0.128c4.684 0 4.76-1.535 3.531-5.123-6.4-18.681-15.013-36.187-26.835-52.085a6.345 6.345 0 0 0-5.765-2.934q-66.957 0.134-133.914 0.134-72.193-0.057-144.385-0.121c-1.7 0-3.21 0.109-4.386 1.715-12.585 17.183-22.495 35.699-28.295 56.286zM537.575 624.9a19.287 19.287 0 0 0 1.983 0.2q65.2 0.019 130.391 0.094c3.177 0.008 4.823-1.5 6.478-3.717a185.2 185.2 0 0 0 26.865-51.018c1.824-5.313 1.788-5.34-3.85-5.34q-54.7-0.007-109.409 0.006c-17.482 0.013-34.963 0.112-52.445 0.172a6.96 6.96 0 0 0-0.988-0.139q-86.177-0.028-172.353-0.1c-3.334-0.005-3.93 0.73-2.846 3.965a188.7 188.7 0 0 0 27.025 52.048 9.064 9.064 0 0 0 8.284 4.131c33.971-0.15 67.942-0.068 101.913-0.1 12.985-0.002 25.969-0.127 38.952-0.202zM339.5 796.119c-11.585 12.895-19.951 27.755-26.565 43.666-2.17 5.221-1.948 5.467 3.746 5.468q66.716 0.01 133.431 0 43.725-0.018 87.451-0.11l210.361 0.091c6.385 0 6.486-0.254 3.944-6.4a175.418 175.418 0 0 0-23.095-39.485 9.338 9.338 0 0 0-8.308-4.182q-187.878 0.1-375.756 0.041c-1.75-0.002-3.697-0.654-5.209 0.911zM537.589 175.3c-1.994-0.066-3.989-0.189-5.983-0.19q-84.726-0.016-169.452-0.008-24.493 0-48.986-0.011c-2.294 0-4.528-0.305-3.238 3.326 6.455 18.175 15.189 35.059 27.85 49.752 1.089 1.57 2.735 0.924 4.132 0.924q190.686 0.038 381.372 0.073a6.97 6.97 0 0 0 6.232-3.087A166.479 166.479 0 0 0 754.4 180.76c2.007-5.653 2.032-5.654-3.893-5.654q-104.215 0-208.43 0.007c-1.498-0.001-2.993 0.122-4.488 0.187z m-4.981 369.8q86.24 0 172.48 0.1c3.883 0.009 5.064-1.216 5.561-4.882a194.657 194.657 0 0 0 0.1-53.293c-0.459-3.292-1.622-3.989-4.688-3.987q-173.48 0.106-346.959 0c-3.109 0-4.208 0.765-4.659 4.019a193.35 193.35 0 0 0 0.054 52.8c0.547 4.036 1.764 5.391 6.134 5.377 57.324-0.191 114.65-0.134 171.977-0.134z m174.858-295.642H357.683c91.317 85.057 259.444 84.442 349.783 0z m-347.94 525.6h345.581c-83.182-77.623-247.734-86.647-345.581-0.002z m49.728-392.245h246.767c-67.435-66.65-181.361-65.266-246.767-0.002z m1.84 262.538c66.559 64.171 177.969 63.1 242.927 0z" fill="#343741" p-id="17313"></path><path d="M264.759 336.713c24.655 22.392 25.46 59.077-0.014 82.242 10.211 5.458 18.833 12.605 24.644 22.75a44.949 44.949 0 0 1 6.126 21.86c0.1 6.142-3.831 10.488-9.447 10.727-5.786 0.246-10.119-3.558-10.427-9.716-0.515-10.314-5.565-17.939-13.6-23.832-17.537-12.858-45.4-12.87-62.905-0.017-8.024 5.893-13.117 13.492-13.606 23.826-0.291 6.138-4.662 9.972-10.417 9.738-5.632-0.229-9.662-4.554-9.442-10.7 0.65-18.189 10.047-31.229 24.665-41.068 1.926-1.3 3.985-2.395 6.294-3.77-12.253-10.931-18.942-24.414-19-40.777-0.053-16.424 6.627-29.948 19.011-41.166-10.359-5.552-18.959-12.622-24.755-22.665a45.021 45.021 0 0 1-6.231-21.829c-0.133-6.357 3.93-10.918 9.675-11.075 5.55-0.152 9.911 3.932 10.218 10.048 0.53 10.544 5.914 18.153 14.173 24.017 16.96 12.044 43.592 12.319 60.858 0.607 8.842-6 14.567-13.915 15.081-25.074a9.769 9.769 0 0 1 10.113-9.6 9.89 9.89 0 0 1 9.724 10.521c-0.6 18.377-9.99 31.594-24.873 41.447-1.8 1.193-3.706 2.222-5.865 3.506z m-39.343 73.6c4.269 1.677 8.544 0.767 12.738-0.186 16.16-3.674 27.456-20.025 25.245-36.369-2.3-16.973-16.673-29.541-32.8-28.672-16.459-0.937-31.449 12.545-32.927 29.613-1.521 17.588 11.188 33.901 27.744 35.616z" fill="#343741" p-id="17314"></path><path d="M532.608 545.1c-57.327 0-114.653-0.062-171.98 0.122-4.37 0.014-5.587-1.341-6.134-5.377a193.35 193.35 0 0 1-0.054-52.8c0.451-3.255 1.55-4.021 4.659-4.019q173.48 0.112 346.959 0c3.066 0 4.229 0.694 4.688 3.987a194.657 194.657 0 0 1-0.1 53.293c-0.5 3.666-1.677 4.892-5.561 4.882q-86.237-0.197-172.477-0.088zM707.466 249.458c-90.339 84.446-258.466 85.057-349.784 0zM359.526 775.056c97.847-86.644 262.4-77.621 345.581 0z" fill="#FEFEFE" p-id="17315"></path><path d="M337.78 228.17c-12.662-14.693-21.395-31.577-27.85-49.752-1.29-3.632 0.945-3.329 3.238-3.326q24.493 0.032 48.986 0.011 84.726 0 169.452 0.008c1.994 0 3.989 0.124 5.983 0.19 0 15.985-0.124 31.971 0.093 47.952 0.054 4-1.183 5.043-5.092 5.036q-97.405-0.189-194.81-0.119z" fill="#FEE180" p-id="17316"></path><path d="M337.78 228.17q97.406 0.02 194.811 0.119c3.909 0.007 5.146-1.036 5.092-5.036-0.217-15.982-0.092-31.968-0.093-47.952 1.495-0.066 2.989-0.188 4.484-0.189q104.215-0.014 208.43-0.007c5.926 0 5.9 0 3.893 5.654a166.479 166.479 0 0 1-24.882 45.321 6.97 6.97 0 0 1-6.232 3.087q-190.686-0.1-381.372-0.073c-1.397 0-3.043 0.646-4.131-0.924z" fill="#FEDB67" p-id="17317"></path><path d="M537.565 845.143q-43.725 0.058-87.451 0.11-66.716 0.028-133.431 0c-5.694 0-5.916-0.247-3.746-5.468 6.614-15.911 14.98-30.772 26.565-43.666 2.163 0.023 4.326 0.065 6.488 0.065q92.842 0.005 185.684-0.106c4.875-0.013 6.132 1.393 6.028 6.139-0.312 14.303-0.127 28.617-0.137 42.926z" fill="#717A9A" p-id="17318"></path><path d="M537.565 845.143c0.009-14.309-0.175-28.622 0.138-42.924 0.1-4.746-1.153-6.152-6.028-6.139q-92.842 0.247-185.684 0.106c-2.163 0-4.325-0.042-6.488-0.065 1.509-1.566 3.456-0.914 5.208-0.914q187.878-0.018 375.756-0.041a9.338 9.338 0 0 1 8.308 4.182 175.418 175.418 0 0 1 23.095 39.485c2.542 6.148 2.441 6.4-3.944 6.4q-105.18-0.041-210.361-0.09z" fill="#5A6286" p-id="17319"></path><path d="M537.575 624.9c-12.984 0.072-25.968 0.194-38.952 0.205-33.971 0.029-67.943-0.052-101.913 0.1a9.064 9.064 0 0 1-8.284-4.131 188.7 188.7 0 0 1-27.026-52.047c-1.085-3.235-0.489-3.97 2.846-3.965q86.176 0.132 172.353 0.1a6.969 6.969 0 0 1 0.988 0.139l-0.012 59.599z" fill="#F5715A" p-id="17320"></path><path d="M360.5 461.145c5.8-20.587 15.71-39.1 28.294-56.284 1.176-1.606 2.682-1.716 4.386-1.715q72.193 0.07 144.386 0.12c0.01 17.827-0.129 35.657 0.133 53.481 0.065 4.435-1.191 5.585-5.593 5.573-55.482-0.149-110.964-0.092-166.447-0.123-1.753 0.003-3.717 0.633-5.159-1.052z" fill="#717A9A" p-id="17321"></path><path d="M360.5 461.145c1.443 1.685 3.406 1.051 5.159 1.052 55.482 0.031 110.965-0.026 166.447 0.123 4.4 0.012 5.658-1.138 5.593-5.573-0.261-17.824-0.123-35.654-0.133-53.481q66.957-0.046 133.914-0.134a6.345 6.345 0 0 1 5.765 2.934c11.821 15.9 20.434 33.4 26.835 52.085 1.229 3.587 1.153 5.127-3.531 5.123q-168.145-0.163-336.291-0.128c-1.258-0.001-4.214 1.77-3.758-2.001z" fill="#5A6286" p-id="17322"></path><path d="M537.575 624.9l0.013-59.605c17.482-0.06 34.963-0.159 52.445-0.172q54.7-0.04 109.409-0.006c5.639 0 5.674 0.028 3.85 5.34a185.2 185.2 0 0 1-26.865 51.018c-1.655 2.217-3.3 3.726-6.478 3.717q-65.2-0.174-130.391-0.094a19.287 19.287 0 0 1-1.983-0.198z" fill="#F35A48" p-id="17323"></path><path d="M409.254 382.811c65.406-65.264 179.332-66.648 246.766 0zM411.095 645.348h242.927c-64.958 63.101-176.368 64.171-242.927 0z" fill="#FEFEFE" p-id="17324"></path><path d="M230.6 345.087c16.127-0.869 30.5 11.7 32.8 28.672 2.211 16.344-9.086 32.7-25.245 36.369-4.194 0.953-8.469 1.863-12.738 0.186 4.043 0.464 5.326-1.165 5.279-5.346-0.225-19.958-0.096-39.92-0.096-59.881z" fill="#FEDB67" p-id="17325"></path><path d="M230.6 345.087c0 19.961-0.129 39.923 0.095 59.882 0.047 4.181-1.236 5.81-5.279 5.346-16.555-1.711-29.265-18.028-27.742-35.614 1.477-17.069 16.467-30.551 32.926-29.614z" fill="#FEE180" p-id="17326"></path></svg>