<?xml version="1.0" encoding="utf-8"?>
<!-- Generator: Adobe Illustrator 26.0.0, SVG Export Plug-In . SVG Version: 6.00 Build 0)  -->
<svg version="1.1" id="图层_1" xmlns="http://www.w3.org/2000/svg" xmlns:xlink="http://www.w3.org/1999/xlink" x="0px" y="0px"
	 viewBox="0 0 500 500" style="enable-background:new 0 0 500 500;" xml:space="preserve">
<style type="text/css">
	.st0{fill:#343741;}
	.st1{fill:#FFFFFF;}
	.st2{fill:#F6DB81;}
	.st3{fill:#F6D56A;}
	.st4{fill:#6F7796;}
	.st5{fill:#586083;}
	.st6{fill:#E96F58;}
	.st7{fill:#E65948;}
</style>
<path class="st0" d="M343.3,358.3c12.1,2.4,23.3,5.1,34.2,8.8c32.4,11,59.6,27,78.6,50.8c12.2,15.1,18.8,32.5,19,50.4
	c0.1,5.1-5.4,8.2-10.6,6c-2.6-1-4.1-3.2-4-5.4c0-4.3-0.8-8.6-1.3-12.9c-0.3-2.4-1.5-2.9-4.4-2.9c-83.9,0.1-167.8,0.1-251.6,0
	c-24.2,0-48.4,0-72.6,0c-2.9,0-4,0.5-4.3,2.9c-0.5,4.1-1.2,8.2-1.3,12.3c-0.1,4.1-3.1,6.7-7.5,6.6c-4.4-0.1-7.1-2.8-7-7
	c0.5-22.2,10-41.9,27.1-59.3c22.9-23.2,53.2-37.8,88.2-46.7c2.7-0.7,5.4-1.2,8-1.8c2.6-0.6,5.1-1.1,7.4-1.6
	c-61.6-22.2-96.3-59.3-93.7-113.6c2.4-49.7,36.9-83.4,93.9-103.4c-8.1-1.7-16.3-3.5-24.4-5.8c-33.8-10-62.6-25.3-83.6-48.9
	c-14.6-16.4-22.4-34.5-22.9-54.6c-0.1-4.4,2.7-7.1,7.2-7.2c4.5,0,7.2,2.6,7.4,7.1c0.1,3,0.6,5.9,0.7,8.9c0.1,2,1.3,2.5,3.7,2.5
	c25-0.1,50.1,0,75.1,0c83.5,0,167,0,250.6,0.1c3.9,0,4.8-1,4.8-3.7c0-2.9,0.4-5.7,0.6-8.6c0.3-3.7,3.2-6.2,7.4-6.1
	c4.2,0.1,7.2,2.6,7.1,6.3c-0.3,20.4-8.2,38.9-23,55.5c-21,23.6-49.9,38.9-83.7,48.9c-7.9,2.3-15.9,4.2-24.1,5.8
	c62.1,22.5,96,59.9,93.8,114.7C436.3,301.3,399.2,341.4,343.3,358.3z M167.1,219.9c-0.3,2.2,1.8,1.2,2.7,1.2
	c81.8,0,163.5,0.1,245.3,0.1c3.4,0,3.5-0.9,2.6-3c-4.7-10.8-11-20.9-19.6-30c-0.9-1.1-2.5-1.8-4.2-1.7c-32.6,0.1-65.1,0.1-97.7,0.1
	c-35.1,0-70.2,0-105.3-0.1c-1.2,0-2.3,0.1-3.2,1C178.6,197.4,171.4,208.1,167.1,219.9L167.1,219.9z M296.3,314.4
	c0.5,0.1,1,0.1,1.4,0.1c31.7,0,63.4,0,95.1,0.1c2.3,0,3.5-0.9,4.7-2.1c8.4-8.9,15-18.9,19.6-29.4c1.3-3.1,1.3-3.1-2.8-3.1
	c-26.6,0-53.2,0-79.8,0c-12.8,0-25.5,0.1-38.3,0.1c-0.2,0-0.5-0.1-0.7-0.1c-41.9,0-83.8,0-125.7-0.1c-2.4,0-2.9,0.4-2.1,2.3
	c4.6,10.8,11.2,20.9,19.7,30c1.3,1.6,3.6,2.5,6,2.4c24.8-0.1,49.6,0,74.3-0.1C277.4,314.5,286.8,314.5,296.3,314.4z M151.8,413.2
	c-8.5,7.4-14.6,16-19.4,25.2c-1.6,3-1.4,3.2,2.7,3.2c32.4,0,64.9,0,97.3,0c21.3,0,42.5,0,63.8-0.1l153.4,0.1c4.7,0,4.7-0.1,2.9-3.7
	c-4.3-8.1-10-15.8-16.8-22.8c-1.3-1.6-3.6-2.5-6.1-2.4c-91.4,0-182.7,0-274.1,0C154.3,412.7,152.9,412.3,151.8,413.2L151.8,413.2z
	 M296.3,55c-1.5,0-2.9-0.1-4.4-0.1c-41.2,0-82.4,0-123.6,0c-11.9,0-23.8,0-35.7,0c-1.7,0-3.3-0.2-2.4,1.9
	c4.7,10.5,11.1,20.2,20.3,28.7c0.8,0.9,2,0.5,3,0.5c92.7,0,185.5,0,278.2,0c1.8,0.1,3.5-0.6,4.5-1.8c7.7-7.9,13.9-16.7,18.2-26.1
	c1.5-3.3,1.5-3.3-2.8-3.3c-50.7,0-101.4,0-152,0C298.5,54.9,297.4,55,296.3,55L296.3,55z M292.7,268.4c41.9,0,83.9,0,125.8,0.1
	c2.8,0,3.7-0.7,4.1-2.8c1.8-10.2,1.8-20.5,0.1-30.7c-0.3-1.9-1.2-2.3-3.4-2.3c-84.4,0-168.7,0-253.1,0c-2.3,0-3.1,0.4-3.4,2.3
	c-1.7,10.1-1.7,20.4,0,30.5c0.4,2.3,1.3,3.1,4.5,3.1C209,268.3,250.9,268.4,292.7,268.4L292.7,268.4z M420.2,97.8H165.1
	C231.7,146.9,354.3,146.5,420.2,97.8L420.2,97.8z M166.4,401h252.1C357.8,356.3,237.8,351.1,166.4,401L166.4,401z M202.7,174.8h180
	C333.5,136.3,250.4,137.1,202.7,174.8L202.7,174.8z M204,326.2c48.6,37,129.8,36.4,177.2,0H204z"/>
<path class="st0" d="M97.3,148.2c18,12.9,18.6,34.1,0,47.4c7.4,3.1,13.7,7.3,18,13.1c2.8,3.8,4.4,8.2,4.5,12.6
	c0.1,3.5-2.8,6.1-6.9,6.2c-4.2,0.1-7.4-2.1-7.6-5.6c-0.4-6-4.1-10.3-9.9-13.7c-12.8-7.4-33.1-7.4-45.9,0c-5.9,3.4-9.6,7.8-9.9,13.7
	c-0.2,3.5-3.4,5.8-7.6,5.6c-4.1-0.1-7-2.6-6.9-6.2c0.5-10.5,7.3-18,18-23.7c1.4-0.7,2.9-1.4,4.6-2.2c-8.9-6.3-13.8-14.1-13.9-23.5
	c0-9.5,4.8-17.3,13.9-23.7c-7.6-3.2-13.8-7.3-18.1-13.1c-2.9-3.8-4.4-8.2-4.5-12.6c-0.1-3.7,2.9-6.3,7.1-6.4c4-0.1,7.2,2.3,7.5,5.8
	c0.4,6.1,4.3,10.5,10.3,13.9c12.4,6.9,31.8,7.1,44.4,0.4c6.4-3.5,10.6-8,11-14.5c0.1-3.1,3.3-5.6,7.2-5.5c0,0,0.1,0,0.1,0
	c4,0,7.2,2.6,7.1,5.8c0,0.1,0,0.2,0,0.3c-0.4,10.6-7.3,18.2-18.1,23.9C100.3,146.8,98.9,147.4,97.3,148.2L97.3,148.2z M68.6,190.6
	c3.1,1,6.2,0.4,9.3-0.1c11.8-2.1,20-11.6,18.4-21c-1.7-9.8-12.2-17-23.9-16.5c-12-0.5-22.9,7.2-24,17.1
	C47.2,180.2,56.5,189.6,68.6,190.6L68.6,190.6z"/>
<path class="st1" d="M292.7,268.4c-41.8,0-83.6,0-125.5,0.1c-3.2,0-4.1-0.8-4.5-3.1c-1.8-10.1-1.8-20.4,0-30.5
	c0.3-1.9,1.1-2.3,3.4-2.3c84.4,0,168.7,0,253.1,0c2.2,0,3.1,0.4,3.4,2.3c1.8,10.2,1.7,20.5-0.1,30.7c-0.4,2.1-1.2,2.8-4.1,2.8
	C376.6,268.4,334.6,268.3,292.7,268.4L292.7,268.4z M420.2,97.8c-65.9,48.7-188.5,49.1-255.2,0H420.2z M166.4,401
	c71.4-50,191.4-44.8,252.1,0H166.4z"/>
<path class="st2" d="M150.6,85.5c-9.2-8.5-15.6-18.2-20.3-28.7c-0.9-2.1,0.7-1.9,2.4-1.9c11.9,0,23.8,0,35.7,0
	c41.2,0,82.4,0,123.6,0c1.5,0,2.9,0.1,4.4,0.1c0,9.2-0.1,18.4,0.1,27.7c0,2.3-0.9,2.9-3.7,2.9C245.3,85.5,197.9,85.5,150.6,85.5z"/>
<path class="st3" d="M150.6,85.5c47.4,0,94.7,0,142.1,0.1c2.9,0,3.8-0.6,3.7-2.9c-0.2-9.2-0.1-18.4-0.1-27.7c1.1,0,2.2-0.1,3.3-0.1
	c50.7,0,101.4,0,152,0c4.3,0,4.3,0,2.8,3.3c-4.3,9.4-10.4,18.2-18.2,26.1c-1,1.2-2.7,1.9-4.5,1.8c-92.7,0-185.5-0.1-278.2,0
	C152.6,86.1,151.4,86.4,150.6,85.5L150.6,85.5z"/>
<path class="st4" d="M296.3,441.5c-21.3,0-42.5,0-63.8,0.1c-32.4,0-64.9,0-97.3,0c-4.2,0-4.3-0.1-2.7-3.2
	c4.8-9.2,10.9-17.8,19.4-25.2c1.6,0,3.2,0,4.7,0c45.1,0,90.3,0,135.4-0.1c3.6,0,4.5,0.8,4.4,3.5C296.2,425,296.3,433.2,296.3,441.5
	L296.3,441.5z"/>
<path class="st5" d="M296.3,441.5c0-8.3-0.1-16.5,0.1-24.8c0.1-2.7-0.8-3.5-4.4-3.5c-45.1,0.1-90.3,0.1-135.4,0.1
	c-1.6,0-3.2,0-4.7,0c1.1-0.9,2.5-0.5,3.8-0.5c91.4,0,182.7,0,274.1,0c2.4-0.1,4.7,0.8,6.1,2.4c6.8,7,12.5,14.6,16.8,22.8
	c1.9,3.5,1.8,3.7-2.9,3.7C398.6,441.5,347.4,441.5,296.3,441.5L296.3,441.5z"/>
<path class="st6" d="M296.3,314.4c-9.5,0-18.9,0.1-28.4,0.1c-24.8,0-49.6,0-74.3,0.1c-2.4,0.1-4.7-0.8-6-2.4
	c-8.5-9.1-15.2-19.3-19.7-30c-0.8-1.9-0.4-2.3,2.1-2.3c41.9,0.1,83.8,0.1,125.7,0.1c0.2,0,0.5,0,0.7,0.1L296.3,314.4L296.3,314.4z"
	/>
<path class="st4" d="M167.1,219.9c4.2-11.9,11.5-22.6,20.6-32.5c0.9-0.9,2-1,3.2-1c35.1,0,70.2,0.1,105.3,0.1
	c0,10.3-0.1,20.6,0.1,30.9c0,2.6-0.9,3.2-4.1,3.2c-40.5-0.1-80.9-0.1-121.4-0.1C169.6,220.6,168.2,220.9,167.1,219.9L167.1,219.9z"
	/>
<path class="st5" d="M167.1,219.9c1.1,1,2.5,0.6,3.8,0.6c40.5,0,80.9,0,121.4,0.1c3.2,0,4.1-0.7,4.1-3.2
	c-0.2-10.3-0.1-20.6-0.1-30.9c32.6,0,65.1,0,97.7-0.1c1.7-0.1,3.3,0.6,4.2,1.7c8.6,9.2,14.9,19.3,19.6,30c0.9,2.1,0.8,3-2.6,3
	c-81.8-0.1-163.5-0.1-245.3-0.1C169,221.1,166.8,222.1,167.1,219.9L167.1,219.9z"/>
<path class="st7" d="M296.3,314.4l0-34.4c12.8,0,25.5-0.1,38.3-0.1c26.6,0,53.2,0,79.8,0c4.1,0,4.1,0,2.8,3.1
	c-4.5,10.6-11.2,20.5-19.6,29.4c-1.2,1.3-2.4,2.1-4.7,2.1c-31.7-0.1-63.4-0.1-95.1-0.1C297.3,314.5,296.8,314.5,296.3,314.4
	L296.3,314.4z"/>
<path class="st1" d="M202.7,174.7c47.7-37.7,130.8-38.5,180,0H202.7z M204,326.2h177.2C333.9,362.6,252.6,363.2,204,326.2z"/>
<path class="st3" d="M72.4,153c11.8-0.5,22.2,6.7,23.9,16.5c1.6,9.4-6.6,18.9-18.4,21c-3.1,0.5-6.2,1.1-9.3,0.1
	c2.9,0.3,3.9-0.7,3.9-3.1C72.3,176,72.4,164.5,72.4,153z"/>
<path class="st2" d="M72.4,153c0,11.5-0.1,23,0.1,34.5c0,2.4-0.9,3.4-3.9,3.1c-12.1-1-21.3-10.4-20.2-20.5
	C49.4,160.2,60.4,152.4,72.4,153z"/>
</svg>
