<?xml version="1.0" encoding="utf-8"?>
<!-- Generator: Adobe Illustrator 26.0.0, SVG Export Plug-In . SVG Version: 6.00 Build 0)  -->
<svg version="1.1" id="图层_1" xmlns="http://www.w3.org/2000/svg" xmlns:xlink="http://www.w3.org/1999/xlink" x="0px" y="0px"
	 viewBox="0 0 500 500" style="enable-background:new 0 0 500 500;" xml:space="preserve">
<style type="text/css">
	.st0{fill:#20923A;}
	.st1{fill:#8ABC48;}
	.st2{fill-rule:evenodd;clip-rule:evenodd;fill:#94C68F;}
</style>
<path class="st0" d="M25,450c0-46.4,5.1-83.8,15.3-112.7s24.4-57.9,42.5-87.2c-18-29.3-32.2-58.4-42.5-87.2S25,96.6,25,50.2v-5
	c0-5.8,1-10.3,3-14.2s4.6-5.8,7.6-5.8s5.6,1.9,7.6,5.8c2,3.8,3,8.6,3,14.2v5c0,3.6,0,7,0.2,10.3c0.2,3.1,0.2,6.5,0.3,9.6h105
	c0.2-3.4,0.3-6.5,0.3-9.9c0.2-3.1,0.2-6.5,0.2-10.3v-5c0-5.8,1-10.3,3-14.2s4.6-5.8,7.6-5.8c3,0,5.6,1.9,7.6,5.8c2,3.8,3,8.6,3,14.2
	v5c0,46.4-5.1,83.8-15.3,112.7c-10.3,28.8-24.4,57.9-42.5,87.2c18,29.3,32.2,58.4,42.5,87.2c10.3,28.8,15.3,66.3,15.3,112.7v5
	c0,5.8-1,10.3-3,14.2c-2,3.8-4.6,5.8-7.6,5.8c-3,0-5.6-1.9-7.6-5.8s-3-8.6-3-14.2v-5c0-3.6,0-7-0.2-10.3c-0.2-3.1-0.2-6.5-0.3-9.6
	h-105c-0.2,3.4-0.3,6.5-0.3,9.9c-0.2,3.1-0.2,6.5-0.2,10.3v5c0,5.8-1,10.3-3,14.2c-2,3.8-4.6,5.8-7.6,5.8s-5.6-1.9-7.6-5.8
	s-3-8.6-3-14.2V450z M61.7,150.4h75.3c2.4-6.2,4.2-12.7,5.9-19c1.7-6.2,3.2-13.2,4.7-20.9H51.1c1.3,7.2,3,14.2,4.7,20.7
	C57.4,137.7,59.4,144.2,61.7,150.4 M99.3,224.4c3.5-5.8,6.9-11.3,10.3-17.1c3.4-5.8,6.6-11.3,9.6-17.1H79.4c3,5.8,6.2,11.3,9.6,17.1
	S95.8,218.6,99.3,224.4 M79.4,310.2h39.8c-3-5.8-6.2-11.3-9.6-17.1c-3.4-5.8-6.7-11.3-10.3-17.1c-3.5,5.8-6.9,11.3-10.3,17.1
	S82.5,304.7,79.4,310.2 M51.1,390.2h96.6c-1.3-7.2-3-14.2-4.7-20.7c-1.7-6.5-3.7-13-5.9-19.2H61.7c-2.4,6.2-4.2,12.7-5.9,19
	C54,375.5,52.5,382.5,51.1,390.2"/>
<path class="st1" d="M326.5,450c0-46.4,5.1-83.8,15.3-112.7s24.4-57.9,42.5-87.2c-18-29.3-32.2-58.4-42.5-87.2
	s-15.3-66.3-15.3-112.7v-5c0-5.8,1-10.3,3-14.2c2-3.8,4.6-5.8,7.6-5.8s5.6,1.9,7.6,5.8s3,8.6,3,14.2v5c0,3.6,0,7,0.2,10.3
	c0.2,3.1,0.2,6.5,0.3,9.6h105c0.2-3.4,0.3-6.5,0.3-9.9c0.2-3.1,0.2-6.5,0.2-10.3v-5c0-5.8,1-10.3,3-14.2c2-3.8,4.6-5.8,7.6-5.8
	s5.6,1.9,7.6,5.8s3,8.6,3,14.2v5c0,46.4-5.1,83.8-15.3,112.7s-24.4,57.9-42.5,87.2c18,29.3,32.2,58.4,42.5,87.2S475,403.4,475,449.8
	v5c0,5.8-1,10.3-3,14.2c-2,3.8-4.6,5.8-7.6,5.8s-5.6-1.9-7.6-5.8s-3-8.6-3-14.2v-5c0-3.6,0-7-0.2-10.3c-0.2-3.4-0.2-6.5-0.3-9.6
	h-105c-0.2,3.4-0.3,6.5-0.3,9.9c-0.2,3.1-0.2,6.5-0.2,10.3v5c0,5.8-1,10.3-3,14.2c-2,3.8-4.6,5.8-7.6,5.8s-5.6-1.9-7.6-5.8
	s-3-8.6-3-14.2V450z M363.3,150.4h75.3c2.4-6.2,4.2-12.7,5.9-19c1.7-6.2,3.2-13.2,4.7-20.9h-96.6c1.3,7.2,3,14.2,4.7,20.7
	C358.9,137.7,360.9,144.2,363.3,150.4 M400.8,224.4c3.5-5.8,6.9-11.3,10.3-17.1s6.6-11.3,9.6-17.1H381c3,5.8,6.2,11.3,9.6,17.1
	C393.9,213.1,397.3,218.6,400.8,224.4 M381,310.2h39.8c-3-5.8-6.2-11.3-9.6-17.1s-6.7-11.3-10.3-17.1c-3.5,5.8-6.9,11.3-10.3,17.1
	S384,304.7,381,310.2 M352.6,390.2h96.6c-1.3-7.2-3-14.2-4.7-20.7c-1.7-6.5-3.7-13-5.9-19.2h-75.3c-2.4,6.2-4.2,12.7-5.9,19
	C355.5,375.5,354,382.5,352.6,390.2"/>
<g>
	<path class="st2" d="M220.8,236.9c0-3.1,2.2-5.5,4.9-5.5h48.7c2.7,0,4.9,2.4,4.9,5.5s-2.2,5.5-4.9,5.5h-48.7
		C223,242.4,220.8,240,220.8,236.9 M220.8,270.5c0-3.1,2.2-5.5,4.9-5.5h48.7c2.7,0,4.9,2.4,4.9,5.5c0,3.1-2.2,5.5-4.9,5.5h-48.7
		C223,276.3,220.8,273.7,220.8,270.5"/>
	<path class="st2" d="M250.2,315.7c29.7,0,53.6-27.6,53.6-62c0-34.1-23.9-62-53.6-62c-29.7,0-53.6,27.6-53.6,62
		S220.5,315.7,250.2,315.7 M250.2,327c34.9,0,63.4-32.7,63.4-73.3s-28.3-73.3-63.4-73.3c-34.9,0-63.4,32.7-63.4,73.3
		S215.1,327,250.2,327"/>
</g>
</svg>
